<svg id="Capa_1" enable-background="new 0 0 497 497" height="512" viewBox="0 0 497 497" width="512" xmlns="http://www.w3.org/2000/svg"><g><g><path d="m0 83.441v400.345c0 7.298 5.916 13.214 13.214 13.214h470.573c7.298 0 13.214-5.916 13.214-13.214v-400.345l-264.11-10z" fill="#fff3c9"/></g><g><path d="m497 83.188h-497v-69.974c0-7.298 5.916-13.214 13.214-13.214h470.573c7.297 0 13.213 5.916 13.213 13.214z" fill="#ffe37b"/></g><g><path d="m467 83.441v400.345c0 7.298-5.916 13.214-13.214 13.214h30c7.298 0 13.214-5.916 13.214-13.214v-400.345l-15-10z" fill="#feeeb9"/></g><g><path d="m483.786 0h-30c7.298 0 13.214 5.916 13.214 13.214v69.975h30v-69.975c0-7.298-5.916-13.214-13.214-13.214z" fill="#f1d368"/></g><g><path d="m368.614 497v-121.085c0-4.032 3.269-7.301 7.301-7.301h121.085z" fill="#ffe37b"/></g><path d="m467 398.614 30-30h-30z" fill="#f1d368"/></g></svg>